<?xml version="1.0" encoding="UTF-8"?>
<!DOCTYPE svg PUBLIC "-//W3C//DTD SVG 1.1//EN" "http://www.w3.org/Graphics/SVG/1.1/DTD/svg11.dtd">
<!-- Creator: CorelDRAW X6 -->
<svg xmlns="http://www.w3.org/2000/svg" xml:space="preserve" width="260mm" height="297mm" version="1.1" style="shape-rendering:geometricPrecision; text-rendering:geometricPrecision; image-rendering:optimizeQuality; fill-rule:evenodd; clip-rule:evenodd"
viewBox="0 0 26000 29700"
 xmlns:xlink="http://www.w3.org/1999/xlink">
 <defs>
  <style type="text/css">
   <![CDATA[
    .fil0 {fill:url(#id0)}
    .fil1 {fill:url(#id1)}
   ]]>
  </style>
  <linearGradient id="id0" gradientUnits="userSpaceOnUse" x1="18501.8" y1="12120.5" x2="8867.39" y2="6909.21">
   <stop offset="0" style="stop-color:#835DA3"/>
   <stop offset="0.580392" style="stop-color:#427FC6"/>
   <stop offset="1" style="stop-color:#00A2E9"/>
  </linearGradient>
  <linearGradient id="id1" gradientUnits="userSpaceOnUse" xlink:href="#id0" x1="18164.4" y1="25264.3" x2="7835.58" y2="19604.9">
  </linearGradient>
 </defs>
 <g id="图层_x0020_1">
  <metadata id="CorelCorpID_0Corel-Layer"/>
  <g id="_1096787024">
   <path class="fil0" d="M12890 5375c-8,-19 -16,-37 -24,-56 -47,-114 -93,-228 -140,-343 -19,-46 -72,-68 -117,-50 -46,19 -68,72 -50,117l292 720 -599 -308c-44,-23 -98,-5 -121,39 -23,44 -5,98 39,121l739 381 1 1794c0,50 40,90 90,90 50,0 90,-40 90,-90l-1 -1793 739 -382c44,-23 61,-77 39,-121 -23,-44 -77,-62 -121,-39l-598 309 291 -721c18,-46 -4,-99 -50,-117 -46,-18 -99,4 -117,50l-272 675 -112 -275 2 -1zm2032 472c2,-20 4,-40 6,-60 15,-122 30,-245 45,-367 6,-49 -29,-94 -78,-100 -49,-6 -94,29 -100,78l-96 771 -372 -561c-28,-41 -83,-53 -125,-25 -41,28 -53,83 -25,125l460 693 -874 1566c-24,43 -9,98 35,122 43,24 98,9 122,-35l874 -1566 831 27c50,2 91,-37 93,-87 2,-50 -37,-91 -87,-93l-673 -22 605 -487c38,-31 45,-88 14,-127 -31,-38 -88,-45 -127,-14l-567 456 37 -295 2 0zm3406 502c12,-16 24,-33 36,-49 74,-98 149,-197 223,-295 30,-39 22,-96 -17,-126 -39,-30 -96,-22 -126,17l-470 619 -41 -672c-3,-50 -46,-87 -95,-84 -50,3 -87,46 -84,95l51 830 -1541 918c-43,25 -57,81 -31,123 25,43 81,57 123,31l1541 -918 706 440c42,26 98,13 124,-29 26,-42 13,-98 -29,-124l-571 -356 768 -118c49,-8 83,-54 75,-103 -8,-49 -54,-83 -103,-75l-719 111 180 -237 1 1zm-1191 3007c19,-8 37,-17 56,-24 114,-48 227,-96 341,-144 45,-19 67,-72 48,-118 -19,-45 -72,-67 -118,-48l-717 300 301 -602c22,-44 4,-98 -40,-121 -45,-22 -98,-4 -121,40l-372 744 -1793 22c-50,1 -89,41 -89,91 1,50 41,89 91,89l1793 -22 390 734c23,44 78,61 122,37 44,-23 61,-78 37,-122l-316 -595 724 282c46,18 99,-5 117,-51 18,-46 -5,-99 -51,-117l-678 -264 274 -115 1 2zm-478 2094c20,2 40,4 60,7 122,15 245,31 367,47 49,6 94,-29 101,-78 6,-49 -29,-94 -78,-101l-771 -99 562 -370c42,-27 53,-83 26,-125 -27,-42 -83,-53 -125,-26l-695 457 -1563 -880c-43,-24 -98,-9 -123,34 -24,43 -9,98 34,123l1563 880 -30 831c-2,50 37,91 87,93 50,2 91,-37 93,-87l24 -673 485 607c31,39 88,45 126,14 39,-31 45,-88 14,-127l-454 -569 295 38 0 2zm-1463 1573c16,12 33,24 49,36 98,75 196,149 294,224 39,30 96,22 126,-17 30,-39 22,-96 -17,-126l-617 -472 672 -39c50,-3 88,-45 85,-95 -3,-50 -45,-87 -95,-85l-830 48 -912 -1545c-25,-43 -80,-57 -123,-32 -43,25 -57,80 -32,123l912 1545 -443 704c-26,42 -14,98 28,124 42,26 98,14 124,-28l358 -570 115 769c7,49 54,83 102,76 49,-7 83,-54 76,-102l-108 -720 236 181 -1 1zm-2054 628c8,19 16,37 24,56 48,114 95,228 142,342 19,45 72,67 118,49 45,-19 68,-72 49,-118l-298 -718 601 303c44,22 98,5 121,-40 22,-44 5,-98 -40,-121l-742 -375 -15 -1793c0,-50 -41,-90 -91,-89 -50,0 -90,41 -89,91l15 1793 -736 387c-44,23 -61,78 -38,122 23,44 78,61 122,38l596 -314 -285 723c-18,46 5,99 51,117 46,18 99,-5 117,-51l267 -677 114 274 -2 1zm-2093 -486c-2,20 -4,40 -7,60 -16,122 -32,245 -48,367 -6,49 29,95 77,101 49,6 95,-28 101,-77l102 -770 368 564c27,42 83,53 125,26 42,-27 53,-83 26,-125l-455 -696 886 -1559c25,-43 9,-98 -34,-123 -43,-25 -98,-9 -123,34l-886 1559 -831 -33c-50,-2 -92,37 -94,86 -2,50 37,92 86,94l673 27 -609 483c-39,31 -45,88 -15,126 31,39 88,45 126,15l570 -452 -39 294 -2 0zm-1567 -1469c-12,16 -24,33 -36,49 -75,98 -150,196 -225,293 -30,39 -23,96 16,126 39,30 96,23 126,-16l475 -616 36 672c3,50 45,88 95,85 50,-3 88,-45 85,-95l-44 -831 1548 -906c43,-25 57,-80 32,-123 -25,-43 -80,-57 -123,-32l-1548 906 -702 -445c-42,-27 -98,-14 -124,28 -27,42 -14,98 28,124l569 361 -769 112c-49,7 -83,53 -76,102 7,49 53,83 102,76l720 -105 -181 235 -1 -1zm-620 -2057c-19,8 -37,16 -56,24 -114,47 -228,94 -342,141 -46,19 -68,72 -49,117 19,46 72,68 117,49l719 -295 -306 600c-23,44 -5,98 39,121 44,23 98,5 121,-39l378 -741 1794 -8c50,0 90,-41 90,-90 0,-50 -41,-90 -90,-90l-1793 8 -385 -737c-23,-44 -77,-61 -121,-38 -44,23 -61,77 -38,121l311 597 -722 -288c-46,-18 -99,4 -117,50 -18,46 4,99 50,117l676 270 -275 113 -1 -2zm494 -2091c-20,-3 -40,-4 -60,-7 -122,-16 -244,-33 -367,-50 -49,-7 -95,28 -101,77 -7,49 28,95 77,101l770 105 -565 366c-42,27 -54,83 -27,124 27,42 83,54 124,27l698 -452 1556 892c43,25 98,10 123,-33 25,-43 10,-98 -33,-123l-1556 -892 37 -831c2,-50 -36,-92 -86,-94 -50,-2 -92,36 -94,86l-30 673 -480 -611c-30,-39 -88,-46 -126,-15 -39,30 -46,88 -15,126l450 572 -294 -40 0 -2zm1475 -1562c-16,-12 -33,-24 -49,-36 -98,-75 -195,-151 -293,-227 -39,-30 -96,-23 -126,16 -30,39 -23,96 16,126l614 477 -673 33c-50,2 -88,45 -85,94 2,50 45,88 94,85l831 -41 900 1552c25,43 80,58 123,33 43,-25 58,-80 33,-123l-900 -1552 448 -701c27,-42 14,-98 -27,-124 -42,-27 -98,-15 -124,27l-363 567 -109 -769c-7,-49 -53,-83 -102,-76 -49,7 -83,53 -76,102l102 720 -235 -182 1 -1zm2169 2654c482,0 872,391 872,872 0,482 -391,872 -872,872 -482,0 -872,-391 -872,-872 0,-482 391,-872 872,-872z"/>
   <path class="fil1" d="M11505 20208c1,-3 3,-7 4,-10 9,-20 18,-40 27,-61 4,-8 0,-18 -8,-21 -8,-4 -18,0 -21,8l-57 127 -35 -116c-3,-9 -12,-13 -20,-11 -9,3 -13,12 -11,20l43 143 -231 223c-6,6 -7,16 0,23 6,6 16,7 23,0l231 -223 141 48c8,3 18,-2 20,-10 3,-8 -2,-18 -10,-20l-114 -39 129 -52c8,-3 12,-13 9,-21 -3,-8 -13,-12 -21,-9l-121 49 22 -49 0 0zm4131 871c1,-3 2,-5 3,-8 6,-15 11,-31 17,-46 2,-6 -1,-13 -7,-15 -6,-2 -13,1 -15,7l-35 98 -32 -84c-2,-6 -9,-9 -16,-7 -6,2 -9,9 -7,16l39 104 -160 178c-4,5 -4,13 1,17 5,4 13,4 17,-1l160 -178 107 28c6,2 13,-2 15,-9 2,-6 -2,-13 -9,-15l-87 -23 93 -46c6,-3 8,-10 6,-16 -3,-6 -10,-8 -16,-6l-87 43 13 -37 0 0zm4558 1873c-20,0 -40,3 -58,8 -19,6 -34,14 -48,26 -13,9 -24,24 -33,43 -8,17 -12,38 -12,62 0,32 12,66 37,100 33,39 64,74 95,103l122 111c46,40 87,80 122,121 38,42 69,87 93,135 25,46 38,97 38,154 0,64 -11,118 -33,165 -22,49 -53,90 -93,122 -40,35 -89,60 -146,77 -57,17 -120,26 -189,26 -63,0 -118,-9 -166,-26 -48,-15 -93,-36 -133,-61 -34,-22 -67,-47 -98,-77 -26,-26 -47,-50 -63,-75l46 -32c12,13 26,27 44,42 18,15 37,29 58,41 24,14 47,24 70,31 24,9 49,13 76,13 62,0 114,-14 156,-44 41,-31 61,-75 61,-133 0,-32 -11,-66 -33,-101 -24,-35 -52,-71 -83,-107l-109 -115c-47,-48 -83,-89 -109,-122 -34,-44 -62,-87 -83,-130 -22,-44 -33,-90 -33,-139 0,-56 12,-103 35,-141 21,-40 51,-73 90,-100 36,-27 79,-47 127,-59 48,-14 98,-21 150,-21 59,0 113,5 162,15 47,11 90,26 126,47 35,22 62,49 80,79 19,32 29,68 29,111 0,32 -11,61 -33,85 -22,24 -53,36 -93,36 -39,0 -68,-8 -86,-23 -20,-16 -30,-38 -30,-66 0,-19 5,-33 14,-42 6,-8 16,-16 31,-26 4,-2 10,-4 18,-8 8,-4 12,-6 13,-7 9,-5 14,-11 14,-19 0,-23 -13,-43 -40,-58 -28,-14 -62,-21 -102,-21zm-693 99c0,157 -16,308 -47,454 -30,146 -73,283 -130,412 -53,124 -118,241 -196,352 -73,102 -156,193 -248,272 -85,72 -180,131 -282,176 -100,42 -200,63 -302,63 -77,0 -137,-12 -180,-37 -43,-25 -64,-60 -64,-103 0,-16 3,-32 8,-47 6,-17 13,-31 21,-41 9,-13 20,-23 32,-29 12,-7 26,-11 40,-11 17,0 31,8 42,25l35 53c9,15 24,33 45,54 17,16 41,25 73,25 40,0 81,-7 125,-19 41,-13 84,-32 131,-58 46,-27 89,-57 130,-91 40,-31 83,-70 130,-118 -35,-120 -64,-214 -85,-283l-104 -310c-30,-92 -66,-192 -109,-300 -42,-106 -79,-192 -111,-257 -33,-72 -68,-132 -104,-180 -33,-45 -62,-67 -87,-67 -16,0 -29,2 -40,7 -13,9 -24,16 -32,22l-27 -32 56 -45c20,-16 43,-30 69,-42 27,-13 57,-23 93,-31 34,-8 76,-13 127,-13 54,0 104,12 151,36 45,23 87,66 126,130 24,40 52,97 86,170 24,54 53,128 89,221 14,37 44,125 91,263l91 298c57,-118 102,-236 133,-355 33,-125 50,-253 50,-384 0,-50 -3,-90 -9,-121 -7,-36 -14,-65 -21,-86 -11,-33 -19,-53 -21,-59 -6,-17 -9,-32 -9,-45 0,-14 5,-24 16,-32 9,-9 22,-16 38,-22 14,-5 29,-9 45,-11 21,-2 35,-3 40,-3 23,0 42,5 56,14 12,9 21,22 28,40 5,15 9,37 10,64 1,17 1,44 1,84zm-1832 466c0,-21 -7,-38 -21,-49 -14,-11 -33,-17 -54,-17 -33,0 -62,7 -88,21 -29,14 -54,34 -74,61 -22,28 -39,61 -50,97 -12,41 -19,86 -19,136 0,48 4,89 10,123 9,34 19,60 32,77 11,20 26,33 43,41 17,7 34,11 53,11 22,0 44,-6 65,-17 23,-15 41,-31 53,-45 14,-17 26,-37 36,-60 9,-21 14,-43 14,-67l0 -314zm-211 -563c-29,0 -57,4 -84,11 -25,6 -47,14 -66,25 -18,10 -33,21 -44,33 -10,13 -16,25 -16,36 0,13 7,22 21,29l45 18c17,7 32,18 45,31 14,14 21,34 21,62 0,17 -4,33 -11,49 -7,14 -18,28 -32,41 -15,13 -30,21 -45,26 -14,7 -32,10 -53,10 -50,0 -90,-16 -119,-49 -31,-31 -47,-74 -47,-130 0,-51 14,-96 43,-135 28,-36 65,-66 110,-91 47,-25 99,-43 155,-53 53,-12 110,-18 172,-18 67,0 133,7 197,22 62,14 118,38 167,69 49,32 87,73 114,121 29,49 44,108 44,178l0 726c0,11 0,20 1,25 2,12 4,21 6,26 5,8 10,14 16,19 6,5 16,8 30,8 14,0 29,-6 45,-17 17,-17 28,-29 36,-36l33 27c-10,14 -27,34 -47,59 -17,20 -39,40 -68,61 -25,18 -57,35 -93,47 -36,13 -76,19 -121,19 -57,0 -106,-16 -148,-49 -43,-30 -71,-79 -85,-147 -26,34 -55,65 -88,93 -34,26 -66,47 -94,60 -33,16 -66,28 -96,33 -34,7 -66,11 -97,11 -43,0 -84,-7 -123,-19 -40,-13 -75,-33 -106,-61 -32,-28 -57,-65 -77,-109 -19,-45 -28,-100 -28,-163 0,-77 16,-141 48,-191 32,-51 74,-92 126,-125 46,-32 104,-61 175,-87l203 -76c51,-19 89,-48 113,-89 23,-39 34,-79 34,-119 0,-65 -19,-115 -58,-153 -38,-38 -90,-57 -156,-57zm-831 302c0,-56 -4,-103 -12,-140 -8,-39 -17,-70 -26,-93 -7,-21 -16,-40 -25,-59 -8,-17 -12,-32 -12,-45 0,-13 5,-24 16,-32 7,-6 19,-13 37,-22 14,-6 29,-10 45,-13 16,-3 29,-4 38,-4 25,0 43,4 56,10 12,6 21,19 28,40 8,24 13,57 16,99 4,35 5,79 5,130 0,66 -4,138 -12,217 -9,86 -21,165 -38,238 -15,77 -38,154 -66,231 -27,75 -59,141 -97,199 -38,57 -82,103 -131,139 -50,34 -106,51 -168,51 -47,0 -92,-10 -134,-29 -42,-22 -76,-49 -104,-79 -34,-37 -61,-76 -81,-118 -24,-44 -45,-93 -62,-144 -18,47 -41,95 -70,147 -28,47 -57,85 -87,117 -33,32 -69,58 -108,78 -38,19 -80,29 -126,29 -56,0 -105,-12 -148,-36 -41,-22 -78,-54 -113,-95 -32,-40 -60,-88 -85,-143 -21,-48 -42,-105 -62,-171 -18,-66 -32,-128 -43,-185 -10,-54 -20,-115 -29,-184 -8,-59 -14,-114 -20,-166 -5,-53 -10,-97 -16,-133 -7,-36 -16,-63 -28,-80 -11,-19 -31,-28 -60,-28 -15,0 -28,2 -38,7 -10,5 -22,13 -34,22l-28 -32c15,-13 38,-29 68,-49 31,-18 58,-32 82,-41 31,-12 62,-22 94,-30 33,-7 68,-11 106,-11 52,0 95,8 128,26 33,18 58,40 77,67 19,25 33,53 41,83 7,26 13,53 17,81 16,126 32,240 47,342 14,92 30,174 49,247 16,63 35,114 57,151 21,34 46,50 74,50 19,0 38,-8 54,-23 18,-15 34,-37 50,-65 14,-24 29,-57 45,-99 14,-38 26,-81 37,-130 -6,-32 -14,-79 -23,-140 -7,-48 -12,-93 -16,-134l-14 -118c-4,-31 -9,-63 -15,-97 -13,-81 -5,-141 24,-181 28,-40 86,-61 172,-61 42,0 73,4 95,10 25,5 47,17 66,36 17,18 31,42 41,72 10,28 18,66 25,116 19,145 36,260 49,344 15,96 32,181 51,256 17,67 36,120 57,158 21,37 46,55 74,55 30,0 58,-18 83,-54 26,-37 48,-85 66,-143 19,-59 33,-127 43,-204 10,-81 15,-161 15,-239zm-1969 813c0,6 -2,19 -5,40 -6,17 -16,32 -29,44 -13,14 -34,26 -63,35 -27,10 -64,15 -111,15 -47,0 -84,-5 -110,-15 -26,-12 -46,-25 -59,-39 -12,-14 -19,-29 -24,-45 -3,-15 -4,-28 -4,-37l0 -1658c0,-23 -6,-45 -17,-65 -13,-18 -33,-28 -61,-28 -14,0 -27,3 -40,8 -9,3 -20,10 -34,20l-26 -31c15,-13 38,-29 67,-49 28,-17 55,-31 81,-41 33,-13 65,-23 95,-29 33,-8 69,-12 106,-12 57,0 102,8 134,23 31,14 54,32 70,54 15,24 24,47 27,69 4,23 5,45 5,66l0 1675zm-1370 -429l-500 0c-37,114 -77,212 -120,294 -41,80 -88,149 -142,207 -49,53 -106,94 -171,122 -63,26 -132,39 -209,39 -41,0 -81,-3 -122,-10 -39,-8 -74,-18 -105,-31 -30,-13 -54,-29 -73,-47 -18,-17 -26,-36 -26,-57 0,-15 2,-31 8,-46 4,-16 10,-31 20,-44 9,-13 20,-24 33,-33 13,-8 27,-11 43,-11 14,0 27,9 37,28 10,17 23,38 40,63 18,22 39,43 64,61 24,19 60,29 106,29 47,0 90,-11 131,-32 41,-21 81,-55 121,-101 37,-46 74,-104 110,-175 35,-71 70,-156 103,-257l-312 0 0 -113 347 0 86 -290 78 -282c19,-68 42,-152 66,-253 14,-51 30,-119 49,-204 -17,-46 -41,-79 -72,-97 -31,-16 -72,-24 -123,-24 -50,0 -99,7 -147,22 -50,12 -96,32 -139,59 -43,29 -76,61 -102,98 -28,37 -41,79 -41,127 0,27 4,48 12,65 6,16 15,28 27,36 9,9 19,14 29,16 9,3 16,4 23,4 20,0 38,-4 54,-11 15,-8 28,-15 37,-23l33 -23c12,-7 24,-11 36,-11 10,0 21,3 32,8 11,4 23,11 34,22 10,11 19,24 25,39 7,19 10,39 10,62 0,34 -7,64 -20,89 -14,24 -32,45 -53,63 -25,16 -49,28 -74,36 -28,8 -55,13 -84,13 -42,0 -80,-8 -115,-23 -33,-14 -62,-35 -86,-60 -25,-27 -43,-57 -54,-90 -12,-36 -19,-72 -19,-108 0,-58 9,-110 29,-155 19,-47 47,-91 81,-131 32,-36 72,-70 122,-103 50,-31 101,-56 152,-75 55,-20 112,-35 170,-45 60,-10 120,-15 179,-15 84,0 156,7 216,19 59,14 108,34 147,59 41,27 73,61 97,100 24,39 43,85 59,138l285 950 288 0 0 113 -255 0 103 337c1,4 2,9 5,18 2,8 5,14 6,18 4,12 9,22 13,29 4,7 10,14 19,21 7,5 16,7 28,7 26,0 49,-4 69,-13 23,-9 42,-17 56,-25l23 48c-7,5 -28,18 -61,38 -29,17 -57,30 -82,40 -30,12 -65,23 -104,32 -36,8 -77,13 -122,13 -59,0 -107,-7 -144,-22 -37,-14 -66,-32 -87,-54 -19,-21 -35,-44 -45,-68 -2,-7 -5,-18 -11,-32 -5,-14 -9,-25 -10,-32l-106 -356zm-257 -869l-106 404c-27,101 -60,219 -101,352l432 0 -225 -756zm-2375 322c34,-47 71,-87 111,-122 19,-17 38,-32 56,-45 26,-18 48,-31 66,-39 22,-12 47,-22 74,-29 28,-7 55,-10 81,-10 58,0 111,11 159,33 47,22 86,60 118,112 31,51 55,120 73,207 17,85 25,192 25,321 0,122 -11,230 -34,324 -22,91 -52,169 -90,234 -37,64 -79,116 -126,157 -46,40 -93,72 -142,97 -51,24 -96,40 -138,47 -37,9 -75,14 -114,15l-13 -53c40,-8 75,-26 106,-53 31,-26 57,-68 78,-126 20,-57 37,-137 49,-238 10,-99 16,-227 16,-384 0,-108 -5,-194 -16,-260 -9,-64 -22,-113 -40,-147 -16,-34 -35,-57 -56,-67 -19,-11 -40,-17 -62,-17 -26,0 -48,6 -68,19 -21,14 -38,30 -50,46 -14,14 -26,32 -37,51 -8,12 -17,25 -26,39l0 859c0,13 -2,27 -5,41 -5,17 -14,32 -27,44 -13,15 -33,27 -61,36 -26,10 -63,15 -110,15 -47,0 -84,-5 -111,-15 -26,-11 -47,-24 -62,-39 -13,-14 -21,-29 -25,-45 -4,-14 -5,-26 -5,-37l0 -1658c0,-23 -6,-45 -17,-65 -13,-18 -33,-28 -61,-28 -14,0 -27,3 -40,8 -9,3 -20,10 -34,20l-26 -31c15,-13 38,-29 67,-49 28,-17 55,-31 81,-41 33,-13 65,-23 95,-29 33,-8 69,-12 106,-12 57,0 102,8 134,23 31,14 54,32 70,54 15,24 24,47 27,69 4,23 5,45 5,66l0 698zm-1033 -142c-20,0 -40,3 -58,8 -19,6 -34,14 -48,26 -13,9 -24,24 -33,43 -8,17 -12,38 -12,62 0,32 12,66 37,100 33,39 64,74 95,103l122 111c46,40 87,80 122,121 38,42 69,87 93,135 25,46 38,97 38,154 0,64 -11,118 -33,165 -22,49 -53,90 -93,122 -40,35 -89,60 -146,77 -57,17 -120,26 -189,26 -63,0 -118,-9 -166,-26 -48,-15 -93,-36 -132,-61 -34,-22 -67,-47 -98,-77 -26,-26 -47,-50 -63,-75l46 -32c12,13 26,27 44,42 18,15 37,29 58,41 24,14 47,24 70,31 24,9 49,13 76,13 62,0 114,-14 156,-44 41,-31 61,-75 61,-133 0,-32 -11,-66 -33,-101 -24,-35 -52,-71 -83,-107l-109 -115c-47,-48 -83,-89 -109,-122 -34,-44 -62,-87 -83,-130 -22,-44 -33,-90 -33,-139 0,-56 12,-103 35,-141 21,-40 51,-73 90,-100 36,-27 79,-47 127,-59 48,-14 98,-21 150,-21 59,0 113,5 162,15 47,11 90,26 126,47 35,22 62,49 80,79 19,32 29,68 29,111 0,32 -11,61 -33,85 -22,24 -53,36 -93,36 -39,0 -68,-8 -86,-23 -20,-16 -30,-38 -30,-66 0,-19 5,-33 14,-42 6,-8 16,-16 31,-26 4,-2 10,-4 18,-8 8,-4 12,-6 13,-7 9,-5 14,-11 14,-19 0,-23 -13,-43 -40,-58 -28,-14 -62,-21 -102,-21zm-2729 782l61 -163c25,-67 46,-128 62,-182l60 -187c21,-73 38,-136 50,-189l-128 -409c-9,-27 -9,-52 1,-73 10,-21 26,-39 49,-54 26,-14 52,-25 78,-31 33,-7 66,-10 97,-10 32,0 58,2 78,5 22,3 42,8 61,15 18,9 32,20 43,34 12,12 21,30 28,54l380 1188 63 -172 65 -190c18,-54 38,-119 61,-198 12,-40 29,-106 52,-197 15,-73 26,-134 34,-184 8,-59 12,-113 12,-162 0,-57 -4,-104 -12,-141 -8,-35 -17,-67 -27,-95 -10,-24 -20,-45 -28,-62 -8,-17 -12,-32 -12,-45 0,-18 5,-33 14,-45 8,-11 20,-22 37,-32 9,-6 26,-12 49,-19 23,-4 40,-5 50,-5 36,0 66,5 90,16 24,10 42,28 52,53 5,15 8,29 10,39 1,4 2,10 4,19 1,10 2,17 3,22 0,5 0,12 0,20 0,8 1,14 1,18l0 27c0,30 -6,79 -17,148 -17,79 -33,149 -50,211 -16,64 -39,149 -71,253l-83 271 -86 269 -83 243 -69 196c-15,45 -30,87 -45,125 -7,21 -17,38 -29,49 -10,11 -23,19 -40,27 -15,7 -32,11 -50,13 -25,2 -44,3 -57,3 -34,0 -63,-4 -86,-11 -22,-6 -40,-14 -54,-25 -13,-10 -22,-21 -29,-33 -1,-2 -6,-13 -14,-32l-264 -841 -89 276 -85 250 -73 201c-23,60 -39,101 -49,125 -10,21 -20,38 -32,49 -12,11 -26,20 -42,27 -15,7 -32,11 -51,13 -23,2 -41,3 -54,3 -34,0 -63,-4 -86,-11 -22,-6 -40,-14 -55,-25 -10,-9 -20,-20 -30,-33 -7,-16 -12,-26 -14,-32l-472 -1530c-10,-30 -19,-54 -28,-73 -10,-19 -22,-36 -37,-50 -15,-12 -33,-22 -53,-29 -19,-6 -45,-9 -77,-9 -26,0 -55,6 -86,18 -30,9 -61,26 -94,51 -30,22 -55,50 -74,85 -20,35 -31,73 -31,117 0,27 4,48 12,65 6,15 14,27 25,36 9,9 19,14 31,16 9,3 16,4 21,4 21,0 39,-4 54,-11 12,-5 25,-13 38,-23l32 -23c11,-7 24,-11 36,-11 12,0 23,3 33,8 12,4 23,11 35,22 10,11 19,24 25,39 7,19 11,39 11,62 0,34 -7,64 -20,89 -14,24 -32,45 -53,63 -25,16 -50,28 -75,36 -27,8 -55,13 -83,13 -43,0 -80,-7 -113,-22 -30,-12 -58,-32 -85,-59 -24,-27 -40,-56 -50,-86 -12,-31 -19,-66 -19,-107 0,-90 18,-168 53,-233 35,-67 82,-123 141,-167 56,-43 122,-76 199,-100 78,-22 154,-32 229,-32 89,0 161,13 217,40 57,25 102,59 137,100 35,41 63,88 84,139 22,56 40,106 54,151l331 1043zm2211 -2243c-154,313 -556,1207 -587,2613 -1,36 4,72 6,108 3,42 40,75 82,72l0 0c42,-3 75,-40 72,-82 -3,-40 -8,-75 -5,-115 25,-378 -27,-1629 512,-2562 19,3 39,4 59,2 111,-12 191,-112 178,-223 -12,-111 -112,-191 -223,-178 -111,12 -191,112 -178,223 7,59 38,110 84,142zm465 -1058c0,-5 0,-9 0,-14 0,-29 1,-57 1,-86 0,-11 -9,-21 -21,-21 -11,0 -21,9 -21,21l-2 180 -100 -119c-7,-9 -21,-10 -29,-3 -9,7 -10,21 -3,29l124 148 -161 383c-4,11 1,23 11,27 11,4 23,-1 27,-11l161 -383 192 -15c11,-1 20,-11 19,-22 -1,-11 -11,-20 -22,-19l-155 12 127 -128c8,-8 8,-21 0,-29 -8,-8 -21,-8 -29,0l-119 120 1 -69 0 0zm866 112c3,-3 7,-7 10,-10 20,-20 41,-40 61,-60 8,-8 8,-21 0,-29 -8,-8 -21,-8 -29,0l-129 126 14 -155c1,-11 -7,-22 -19,-23 -11,-1 -22,7 -23,19l-17 192 -384 157c-11,4 -16,17 -11,27 4,11 17,16 27,11l384 -157 147 125c9,7 22,6 29,-2 7,-9 6,-22 -2,-29l-119 -101 180 -1c11,0 21,-10 21,-21 0,-11 -10,-21 -21,-21l-168 1 49 -48 0 0zm-266 638c4,-2 8,-5 12,-7 25,-14 50,-28 75,-42 10,-6 14,-18 8,-28 -6,-10 -18,-14 -28,-8l-157 88 54 -146c4,-11 -2,-23 -12,-27 -11,-4 -23,2 -27,12l-66 181 -412 51c-11,1 -20,12 -18,23 1,11 12,20 23,18l412 -51 109 159c6,9 19,12 29,5 9,-6 12,-19 5,-29l-88 -129 174 46c11,3 23,-4 26,-15 3,-11 -4,-23 -15,-26l-163 -43 60 -33 0 0zm-56 494c5,0 9,0 14,0 29,0 57,1 86,1 11,0 21,-9 21,-20 0,-11 -9,-21 -20,-21l-180 -3 120 -100c9,-7 10,-20 3,-29 -7,-9 -20,-10 -29,-3l-148 123 -382 -162c-11,-4 -23,0 -27,11 -5,11 0,23 11,27l382 162 14 192c1,11 11,20 22,19 11,-1 20,-11 19,-22l-12 -155 127 127c8,8 21,8 29,0 8,-8 8,-21 0,-29l-119 -119 69 1 0 0zm-296 400c4,2 8,5 12,7 25,15 49,29 73,44 10,6 23,3 29,-7 6,-10 3,-23 -7,-29l-154 -93 154 -26c11,-2 19,-13 17,-24 -2,-11 -13,-19 -24,-17l-190 32 -250 -332c-7,-9 -20,-11 -29,-4 -9,7 -11,20 -4,29l250 332 -84 173c-5,10 -1,23 10,28 10,5 23,1 28,-10l68 -140 46 174c3,11 14,18 26,15 11,-3 18,-14 15,-26l-43 -163 59 35 0 0zm-456 198c2,4 5,8 7,12 14,25 28,50 42,75 6,10 18,14 28,8 10,-6 14,-18 8,-28l-87 -158 146 54c11,4 23,-1 27,-12 4,-11 -1,-23 -12,-27l-180 -67 -50 -412c-1,-11 -12,-20 -23,-18 -11,1 -20,12 -18,23l50 412 -159 108c-10,6 -12,19 -6,29 6,10 19,12 29,6l129 -88 -47 174c-3,11 4,23 15,26 11,3 23,-4 26,-15l44 -163 33 60 0 0zm-892 -355c-2,4 -5,8 -7,12 -15,24 -30,49 -44,73 -6,10 -3,23 7,29 10,6 23,3 29,-7l93 -154 26 154c2,11 13,19 24,17 11,-2 19,-13 17,-24l-32 -190 333 -248c9,-7 11,-20 4,-29 -7,-9 -20,-11 -29,-4l-333 248 -173 -84c-10,-5 -23,-1 -28,10 -5,10 -1,23 10,28l140 68 -174 46c-11,3 -18,14 -15,25 3,11 14,18 25,15l163 -43 -36 59 0 0zm-196 -457c-4,2 -8,5 -12,7 -25,14 -50,28 -75,41 -10,5 -14,18 -8,28 5,10 18,14 28,8l158 -86 -55 146c-4,11 1,23 12,27 11,4 23,-1 27,-12l68 -180 412 -48c11,-1 20,-12 18,-23 -1,-11 -12,-20 -23,-18l-412 48 -107 -160c-6,-10 -19,-12 -29,-6 -10,6 -12,19 -6,29l87 129 -173 -48c-11,-3 -23,4 -26,15 -3,11 4,23 15,26l162 45 -60 33 0 0zm60 -494c-5,0 -9,0 -14,0 -29,-1 -57,-1 -86,-2 -11,0 -21,9 -21,20 0,11 9,21 20,21l180 4 -121 99c-9,7 -10,20 -3,29 7,9 20,10 29,3l149 -122 381 165c11,5 23,0 27,-11 5,-11 0,-23 -11,-27l-381 -165 -13 -192c-1,-11 -11,-20 -22,-19 -11,1 -20,11 -19,22l11 156 -126 -128c-8,-8 -21,-8 -29,0 -8,8 -8,21 0,29l118 120 -69 -2 0 0zm299 -397c-4,-2 -8,-5 -12,-7 -24,-15 -49,-30 -73,-45 -10,-6 -23,-3 -29,7 -6,10 -3,23 7,29l153 94 -154 25c-11,2 -19,13 -17,24 2,11 13,19 24,17l190 -31 247 334c7,9 20,11 29,4 9,-7 11,-20 4,-29l-247 -334 85 -173c5,-10 1,-23 -9,-28 -10,-5 -23,-1 -28,9l-69 140 -45 -174c-3,-11 -14,-18 -25,-15 -11,3 -18,14 -15,25l42 163 -59 -36 0 0zm458 -194c-2,-4 -5,-8 -7,-12 -14,-25 -27,-50 -41,-75 -5,-10 -18,-14 -28,-8 -10,5 -14,18 -8,28l86 158 -146 -55c-11,-4 -23,1 -27,12 -4,11 1,23 12,27l180 69 46 413c1,11 12,20 23,18 11,-1 20,-12 18,-23l-46 -413 160 -107c10,-6 12,-19 6,-29 -6,-10 -19,-12 -29,-6l-130 87 48 -173c3,-11 -3,-23 -14,-26 -11,-3 -23,3 -26,14l-45 162 -33 -60 0 0zm8678 74c0,-2 0,-5 1,-7 1,-14 3,-28 5,-43 1,-6 -4,-11 -9,-11 -6,-1 -11,4 -11,9l-10 89 -44 -64c-3,-5 -10,-6 -14,-3 -5,3 -6,10 -3,15l55 79 -98 183c-3,5 -1,11 4,14 5,3 11,1 14,-4l98 -183 96 1c6,0 10,-5 11,-10 0,-6 -4,-10 -10,-11l-78 -1 69 -58c4,-4 5,-10 1,-15 -4,-4 -10,-5 -15,-1l-65 54 4 -34 0 0zm-3977 400c2,-2 3,-5 5,-7 10,-14 21,-29 31,-43 4,-6 3,-14 -3,-18 -6,-4 -14,-3 -18,3l-66 91 -8 -97c-1,-7 -7,-12 -14,-12 -7,1 -12,7 -12,14l9 120 -220 136c-6,4 -8,12 -4,18 4,6 12,8 18,4l220 -136 103 62c6,4 14,2 18,-4 4,-6 2,-14 -4,-18l-83 -50 111 -19c7,-1 12,-8 11,-15 -1,-7 -8,-12 -15,-11l-104 18 25 -35 0 0zm-1081 -673c1,-3 2,-7 2,-10 5,-20 10,-40 15,-60 2,-8 -3,-16 -11,-18 -8,-2 -16,3 -18,11l-33 126 -50 -101c-4,-7 -13,-11 -20,-7 -7,4 -11,13 -7,20l62 125 -179 242c-5,7 -4,16 3,21 7,5 16,4 21,-3l179 -242 138 22c8,1 16,-4 17,-13 1,-8 -4,-16 -12,-17l-112 -18 111 -68c7,-4 9,-14 5,-21 -4,-7 -14,-9 -21,-5l-104 64 12 -48 0 0z"/>
  </g>
 </g>
</svg>
